<svg xmlns="http://www.w3.org/2000/svg" width="17" height="17" viewBox="0 0 17 17">
  <metadata><?xpacket begin="﻿" id="W5M0MpCehiHzreSzNTczkc9d"?>
<x:xmpmeta xmlns:x="adobe:ns:meta/" x:xmptk="Adobe XMP Core 5.6-c140 79.160451, 2017/05/06-01:08:21        ">
   <rdf:RDF xmlns:rdf="http://www.w3.org/1999/02/22-rdf-syntax-ns#">
      <rdf:Description rdf:about=""/>
   </rdf:RDF>
</x:xmpmeta>
                                                                                                    
                                                                                                    
                                                                                                    
                                                                                                    
                                                                                                    
                                                                                                    
                                                                                                    
                                                                                                    
                                                                                                    
                                                                                                    
                                                                                                    
                                                                                                    
                                                                                                    
                                                                                                    
                                                                                                    
                                                                                                    
                                                                                                    
                                                                                                    
                                                                                                    
                                                                                                    
                           
<?xpacket end="w"?></metadata>
<defs>
    <style>
      .cls-1 {
        fill: #b3b3b3;
        fill-rule: evenodd;
      }
    </style>
  </defs>
  <path id="Forma_1" data-name="Forma 1" class="cls-1" d="M406.991,571.415a0.823,0.823,0,0,1-.252.72l-2.394,2.376a1.356,1.356,0,0,1-.422.306,1.75,1.75,0,0,1-.513.162q-0.018,0-.108.009t-0.234.009a7.956,7.956,0,0,1-2.978-.693,15.714,15.714,0,0,1-2.511-1.377,18.779,18.779,0,0,1-2.987-2.521,19.8,19.8,0,0,1-2.087-2.376,17.006,17.006,0,0,1-1.332-2.1,11.3,11.3,0,0,1-.756-1.746,9.385,9.385,0,0,1-.341-1.351,4.458,4.458,0,0,1-.072-0.891q0.018-.324.018-0.36a1.75,1.75,0,0,1,.162-0.513,1.363,1.363,0,0,1,.3-0.423l2.394-2.395a0.793,0.793,0,0,1,.576-0.252,0.667,0.667,0,0,1,.413.135,1.235,1.235,0,0,1,.306.333l1.926,3.655a0.876,0.876,0,0,1,.09.63,1.118,1.118,0,0,1-.306.576l-0.882.883a0.3,0.3,0,0,0-.063.116,0.455,0.455,0,0,0-.027.136,3.25,3.25,0,0,0,.324.864,7.931,7.931,0,0,0,.666,1.053,17.237,17.237,0,0,0,2.717,2.719,8.31,8.31,0,0,0,1.053.675,2.8,2.8,0,0,0,.648.261l0.224,0.045a0.426,0.426,0,0,0,.118-0.027,0.316,0.316,0,0,0,.117-0.063l1.025-1.044a1.1,1.1,0,0,1,.756-0.288,0.941,0.941,0,0,1,.486.108h0.018l3.473,2.052A0.907,0.907,0,0,1,406.991,571.415Z" transform="translate(-390 -558)"/>
</svg>
