<?xml version="1.0" encoding="utf-8"?>
<!-- Generator: Adobe Illustrator 22.0.1, SVG Export Plug-In . SVG Version: 6.00 Build 0)  -->
<svg version="1.1" id="Слой_1" xmlns="http://www.w3.org/2000/svg" xmlns:xlink="http://www.w3.org/1999/xlink" x="0px" y="0px"
	 viewBox="0 0 681.7 144.7" style="enable-background:new 0 0 681.7 144.7;" xml:space="preserve">
<style type="text/css">
	.st0{fill:#FFFFFF;}
	.st1{enable-background:new    ;}
</style>
<g>
	<g>
		<path class="st0" d="M150.1,131.4L79.1,8.5l-71,122.9H150.1z M129.5,120.4H28.7L79.1,33L129.5,120.4z"/>
	</g>
</g>
<g>
	<polygon class="st0" points="86.9,74 84.2,78.8 100.1,106.4 68.2,106.4 65.5,111.1 108.3,111.1 	"/>
</g>
<g>
	<polygon class="st0" points="72.1,65.9 50.7,103 93.5,103 	"/>
</g>
<g class="st1">
	<path class="st0" d="M183.4,56.4v3.1h-5v-3.1c-9.9-0.5-15.5-5.1-15.5-12.8c0-7.8,5.6-12.4,15.5-12.9v-3h5v3
		c9.9,0.5,15.5,5.1,15.5,12.9C198.9,51.3,193.3,56,183.4,56.4z M178.4,52.1V35.1c-6.8,0.5-10.2,3.3-10.2,8.5
		C168.1,48.8,171.8,51.6,178.4,52.1z M193.6,43.6c0-5.2-3.6-8-10.2-8.5v17.1C190.1,51.6,193.6,48.7,193.6,43.6z"/>
	<path class="st0" d="M228.9,28.9v29.4h-5.4V33.6H212l-0.3,7.4c-0.4,11.6-2.1,17.9-8.4,17.9c-0.9,0-1.8-0.2-3-0.4l0.4-4.7
		c0.4,0.1,0.8,0.2,1.3,0.2c3.6,0,4.7-4.4,5-12.6l0.4-12.2H228.9z"/>
	<path class="st0" d="M235,43.7c0-8.7,6.7-15.1,15.8-15.1s15.8,6.4,15.8,15.1c0,8.7-6.7,15.1-15.8,15.1S235,52.3,235,43.7z
		 M261.1,43.7c0-6-4.4-10.3-10.3-10.3c-5.9,0-10.3,4.3-10.3,10.3c0,6,4.4,10.3,10.3,10.3C256.7,54,261.1,49.7,261.1,43.7z"/>
	<path class="st0" d="M292.6,33.6h-14.6l0,24.8h-5.4V28.9h20L292.6,33.6z"/>
	<path class="st0" d="M297.3,28.9h5.4v20.9l15.8-20.9h5.1v29.4h-5.4V37.5l-15.8,20.8h-5.1V28.9z"/>
	<path class="st0" d="M329.6,43.7c0-8.8,6.7-15.1,15.8-15.1c4.8,0,8.9,1.7,11.6,4.9l-3.5,3.3c-2.1-2.3-4.8-3.4-7.9-3.4
		c-6.1,0-10.5,4.3-10.5,10.3c0,6,4.4,10.3,10.5,10.3c3.1,0,5.7-1.1,7.9-3.5l3.5,3.4c-2.7,3.2-6.8,4.9-11.7,4.9
		C336.3,58.8,329.6,52.4,329.6,43.7z"/>
	<path class="st0" d="M383.1,33.6h-9.7v24.8h-5.4V33.6h-9.7v-4.6h24.9V33.6z"/>
	<path class="st0" d="M385.1,43.7c0-8.7,6.7-15.1,15.8-15.1c9.1,0,15.8,6.4,15.8,15.1c0,8.7-6.7,15.1-15.8,15.1
		C391.8,58.8,385.1,52.3,385.1,43.7z M411.3,43.7c0-6-4.4-10.3-10.3-10.3s-10.3,4.3-10.3,10.3c0,6,4.4,10.3,10.3,10.3
		S411.3,49.7,411.3,43.7z"/>
	<path class="st0" d="M449,28.9v29.4h-5.5V45.8h-15.2v12.6h-5.5V28.9h5.5v12.1h15.2V28.9H449z"/>
	<path class="st0" d="M492.5,43.7c0,8.8-6.3,15.1-15,15.1c-5,0-9.2-1.7-11.8-4.9l3.4-3.4c2.2,2.4,4.9,3.5,8.1,3.5
		c5,0,8.8-3.4,9.6-8.4h-13.1v-4.3h13.1c-0.9-4.7-4.7-7.9-9.5-7.9c-3.2,0-5.9,1.1-8.1,3.5l-3.4-3.4c2.7-3.2,6.9-4.9,11.8-4.9
		C486.2,28.5,492.5,34.9,492.5,43.7z"/>
	<path class="st0" d="M509.4,46H504v12.4h-5.4V28.9h5.4v12.3h5.6l8.4-12.3h5.8l-10,14.2l10.4,15.2H518L509.4,46z"/>
	<path class="st0" d="M525.7,43.7c0-8.8,6.7-15.1,15.8-15.1c4.8,0,8.9,1.7,11.6,4.9l-3.5,3.3c-2.1-2.3-4.8-3.4-7.9-3.4
		c-6.1,0-10.5,4.3-10.5,10.3c0,6,4.4,10.3,10.5,10.3c3.1,0,5.7-1.1,7.9-3.5l3.5,3.4c-2.7,3.2-6.8,4.9-11.7,4.9
		C532.4,58.8,525.7,52.4,525.7,43.7z"/>
	<path class="st0" d="M584.2,28.9v29.4h-5.4V33.6h-15.2v24.8h-5.4V28.9H584.2z"/>
	<path class="st0" d="M614.5,53.8v4.6h-22.1V28.9h21.5v4.6h-16v7.6h14.2v4.5h-14.2v8.1H614.5z"/>
	<path class="st0" d="M645.2,39.4c0,6.5-4.8,10.5-12.5,10.5h-6.6v8.5h-5.5V28.9h12.1C640.4,28.9,645.2,32.9,645.2,39.4z M639.7,39.4
		c0-3.7-2.5-5.8-7.3-5.8h-6.4v11.7h6.4C637.2,45.2,639.7,43.1,639.7,39.4z"/>
	<path class="st0" d="M670.9,33.6h-9.7v24.8h-5.4V33.6H646v-4.6h24.9V33.6z"/>
</g>
<g class="st1">
	<path class="st0" d="M175.5,95.9h-5.3V107h-3.5V81.8h3.5v10.9h5.3l7.9-10.9h3.9l-9,12.2l9.4,13h-4.1L175.5,95.9z"/>
	<path class="st0" d="M207.8,87.9l-9.3,21c-1.7,4-3.9,5.3-6.8,5.3c-1.8,0-3.7-0.6-4.9-1.8l1.5-2.6c0.9,0.9,2.1,1.4,3.4,1.4
		c1.7,0,2.7-0.8,3.6-3l0.6-1.3l-8.4-19h3.6l6.7,15.3l6.6-15.3H207.8z"/>
	<path class="st0" d="M231.1,97.5c0,5.9-4.1,9.8-9.6,9.8c-2.7,0-5.1-1-6.7-3.1v9.9h-3.5V87.9h3.3v3c1.5-2.1,4-3.2,6.8-3.2
		C227,87.8,231.1,91.6,231.1,97.5z M227.6,97.5c0-4-2.8-6.7-6.4-6.7c-3.6,0-6.4,2.7-6.4,6.7c0,4.1,2.8,6.7,6.4,6.7
		C224.8,104.2,227.6,101.5,227.6,97.5z"/>
	<path class="st0" d="M234.3,97.5c0-5.7,4.2-9.7,10.1-9.7c3.4,0,6.3,1.4,7.8,4.1l-2.6,1.7c-1.2-1.9-3.1-2.7-5.2-2.7
		c-3.7,0-6.6,2.6-6.6,6.7c0,4.1,2.8,6.7,6.6,6.7c2.1,0,4-0.9,5.2-2.7l2.6,1.7c-1.5,2.7-4.4,4.1-7.8,4.1
		C238.5,107.2,234.3,103.2,234.3,97.5z"/>
	<path class="st0" d="M264.1,99h-4v8.1h-3.5V87.9h3.5V96h4l6.2-8.1h3.7l-7.2,9.2l7.7,9.9h-4.1L264.1,99z"/>
</g>
</svg>
