<svg xmlns="http://www.w3.org/2000/svg" style="display:none"><defs><style>.cls-1{fill-rule:evenodd}</style><style>.cls-1{fill:#2847bc;fill-rule:evenodd}</style><style>.cls-1{fill-rule:evenodd}</style><style>.cls-1{fill:#b3b3b3;fill-rule:evenodd}</style><style>.cls-1{fill:#b3b3b3;fill-rule:evenodd}</style></defs><symbol id="icon-arrow-bottom" viewBox="0 0 14.938 8"><path id="Forma_1" data-name="Forma 1" class="cls-1" d="M506.742 1031.71l-6.436-6.04a.939.939 0 0 1 0-1.39 1.106 1.106 0 0 1 1.482 0l5.695 5.35 5.695-5.35a1.107 1.107 0 0 1 1.483 0 .941.941 0 0 1 0 1.39l-6.437 6.04a1.092 1.092 0 0 1-1.482 0z" transform="translate(-500.031 -1024)"/></symbol><symbol id="icon-arrow-left" viewBox="0 0 8 15"><path id="Forma_1" data-name="Forma 1" class="cls-1" d="M429.288 416.228l6.038 6.46a.938.938 0 0 0 1.39 0 1.1 1.1 0 0 0 0-1.487l-5.342-5.716 5.342-5.716a1.1 1.1 0 0 0 0-1.488.938.938 0 0 0-1.39 0l-6.038 6.46a1.1 1.1 0 0 0 0 1.487z" transform="translate(-429 -408)"/></symbol><symbol id="icon-arrow-right" viewBox="0 0 8 15"><path id="Forma_1" data-name="Forma 1" class="cls-1" d="M1499.71 416.228l-6.04 6.46a.938.938 0 0 1-1.39 0 1.112 1.112 0 0 1 0-1.487l5.35-5.716-5.35-5.716a1.114 1.114 0 0 1 0-1.488.938.938 0 0 1 1.39 0l6.04 6.46a1.1 1.1 0 0 1 0 1.487z" transform="translate(-1492 -408)"/></symbol><symbol id="icon-map" viewBox="0 0 14 20"><path class="cls-1" d="M7 0a7.132 7.132 0 0 0-7 7.242c0 4.957 6.265 12.232 6.532 12.54a.616.616 0 0 0 .938 0c.267-.308 6.532-7.583 6.532-12.54A7.133 7.133 0 0 0 7 0zm0 10.886a3.646 3.646 0 1 1 3.522-3.644A3.589 3.589 0 0 1 7 10.883z"/></symbol><symbol id="icon-phone" viewBox="0 0 17 17"><path id="Forma_1" data-name="Forma 1" class="cls-1" d="M406.991 571.415a.823.823 0 0 1-.252.72l-2.394 2.376a1.356 1.356 0 0 1-.422.306 1.75 1.75 0 0 1-.513.162q-.018 0-.108.009t-.234.009a7.956 7.956 0 0 1-2.978-.693 15.714 15.714 0 0 1-2.511-1.377 18.779 18.779 0 0 1-2.987-2.521 19.8 19.8 0 0 1-2.087-2.376 17.006 17.006 0 0 1-1.332-2.1 11.3 11.3 0 0 1-.756-1.746 9.385 9.385 0 0 1-.341-1.351 4.458 4.458 0 0 1-.072-.891q.018-.324.018-.36a1.75 1.75 0 0 1 .162-.513 1.363 1.363 0 0 1 .3-.423l2.394-2.395a.793.793 0 0 1 .576-.252.667.667 0 0 1 .413.135 1.235 1.235 0 0 1 .306.333l1.926 3.655a.876.876 0 0 1 .09.63 1.118 1.118 0 0 1-.306.576l-.882.883a.3.3 0 0 0-.063.116.455.455 0 0 0-.027.136 3.25 3.25 0 0 0 .324.864 7.931 7.931 0 0 0 .666 1.053 17.237 17.237 0 0 0 2.717 2.719 8.31 8.31 0 0 0 1.053.675 2.8 2.8 0 0 0 .648.261l.224.045a.426.426 0 0 0 .118-.027.316.316 0 0 0 .117-.063l1.025-1.044a1.1 1.1 0 0 1 .756-.288.941.941 0 0 1 .486.108h.018l3.473 2.052a.907.907 0 0 1 .455.597z" transform="translate(-390 -558)"/></symbol><symbol id="temp-icon-left-arrow" viewBox="0 0 31.494 31.494"><path d="M10.273 5.01a1.117 1.117 0 0 1 1.587 1.57l-8.047 8.047h26.554c.62 0 1.127.492 1.127 1.11 0 .62-.508 1.128-1.127 1.128H3.813l8.047 8.032c.43.444.43 1.16 0 1.587a1.112 1.112 0 0 1-1.587 0L.32 16.532a1.12 1.12 0 0 1 0-1.57l9.953-9.953z" fill="#1E201D"/></symbol><symbol id="temp-icon-right-arrow" viewBox="0 0 31.49 31.49"><path d="M21.205 5.007a1.117 1.117 0 0 0-1.587 1.57l8.047 8.048H1.11c-.618 0-1.11.493-1.11 1.112 0 .62.492 1.127 1.11 1.127h26.555l-8.047 8.032c-.43.444-.43 1.16 0 1.587.444.444 1.16.444 1.587 0l9.952-9.952a1.092 1.092 0 0 0 0-1.57l-9.952-9.95z" fill="#1E201D"/></symbol></svg>